<svg width="480" height="240" viewBox="0 0 480 240" xmlns="http://www.w3.org/2000/svg"><title>doppio-logo</title><path d="M300.967 96.515a5.521 5.521 0 0 1-5.527 5.515 5.521 5.521 0 0 1-5.527-5.515A5.521 5.521 0 0 1 295.44 91a5.521 5.521 0 0 1 5.527 5.515zm-104.182 39.34c-8.803 0-15.938-7.078-15.938-15.81 0-8.731 7.135-15.81 15.938-15.81 8.802 0 15.938 7.079 15.938 15.81 0 8.732-7.136 15.81-15.938 15.81zm-6.609-15.617c0 3.515 2.872 6.363 6.415 6.363h.388c3.547 0 6.414-2.849 6.414-6.363 0-3.515-2.872-6.362-6.414-6.362h-.388c-3.547 0-6.415 2.848-6.415 6.362zm130.226 15.617c-8.802 0-15.938-7.078-15.938-15.81 0-8.731 7.136-15.81 15.938-15.81 8.803 0 15.938 7.079 15.938 15.81 0 8.732-7.135 15.81-15.938 15.81zm-6.608-15.617c0 3.515 2.872 6.363 6.415 6.363h.387c3.547 0 6.415-2.849 6.415-6.363 0-3.515-2.872-6.362-6.415-6.362h-.387c-3.547 0-6.415 2.848-6.415 6.362zm-18.354-16.002c2.646 0 4.79 2.072 4.79 4.627v22.365c0 2.555-2.144 4.627-4.79 4.627-2.645 0-4.79-2.072-4.79-4.627v-22.365c0-2.555 2.145-4.627 4.79-4.627zM175.875 99.36v20.685c0 8.838-7.133 16.002-15.938 16.002-8.802 0-15.937-7.162-15.937-16.002 0-8.837 7.133-16.001 15.937-16.001h6.608V99.36c0-2.586 2.089-4.683 4.665-4.683s4.665 2.097 4.665 4.683zm-22.546 20.49c0 3.558 2.872 6.44 6.415 6.44h.387c3.547 0 6.414-2.883 6.414-6.44v-6.44h-6.801c-3.547 0-6.415 2.884-6.415 6.44zm63.75 20.88v-20.685c0-8.837 7.132-16.001 15.936-16.001 8.802 0 15.938 7.161 15.938 16.001 0 8.838-7.133 16.002-15.938 16.002h-6.608v4.684c0 2.586-2.088 4.683-4.664 4.683-2.576 0-4.665-2.097-4.665-4.683zm22.545-20.49c0-3.557-2.872-6.44-6.415-6.44h-.387c-3.547 0-6.415 2.884-6.415 6.44v6.44h6.802c3.547 0 6.415-2.883 6.415-6.44zm13.993 20.49v-20.685c0-8.837 7.133-16.001 15.938-16.001 8.802 0 15.937 7.161 15.937 16.001 0 8.838-7.133 16.002-15.937 16.002h-6.609v4.684c0 2.586-2.088 4.683-4.664 4.683-2.576 0-4.665-2.097-4.665-4.683zm22.546-20.49c0-3.557-2.872-6.44-6.415-6.44h-.387c-3.547 0-6.415 2.884-6.415 6.44v6.44h6.802c3.547 0 6.415-2.883 6.415-6.44z" fill="#FFF" fill-rule="evenodd"/></svg>