<svg width="480" height="240" viewBox="0 0 480 240" xmlns="http://www.w3.org/2000/svg"><title>io-logo</title><path d="M196.717 113.619c0-9.787 7.057-11.508 13.298-10.876v51.926h-13.298v-41.05zM203.23 80c4.701 0 8.503 3.443 8.503 7.974 0 4.62-3.802 8.246-8.503 8.246-4.34 0-8.23-3.625-8.23-8.246 0-4.53 3.89-7.974 8.23-7.974zm66.225 23.585l-5.145 5.422a20.262 20.262 0 0 0-6.507-3.864l4.427-12.21c3.152 2.926 5.592 6.575 7.225 10.652zm-1.913 9.03a20.482 20.482 0 0 0-2.093-2.522l7.862-8.288 1.182-1.185.025.025c1.948 3.693 3.197 7.883 3.642 12.313l-8.583 3.312a20.445 20.445 0 0 0-2.035-3.655zm3.685 12.279a20.36 20.36 0 0 0-1.09-7.152l11.62-4.486c.945 3.93 1.2 8.123.689 12.373l-11.22-.735zm-7.934 15.633a20.292 20.292 0 0 0 4.848-5.365l11.298 6.469a36.354 36.354 0 0 1-9.195 8.686l-6.951-9.79zm-12.452 4.252a20.256 20.256 0 0 0 11.173-3.338l7.578 10.674a33.562 33.562 0 0 1-18.75 5.764 33.19 33.19 0 0 1-11.428-2.015 33.686 33.686 0 0 1-12.225-7.79 33.44 33.44 0 0 1-7.787-12.24 33.712 33.712 0 0 1-1.906-14.388 33.446 33.446 0 0 1 4.352-13.844 33.366 33.366 0 0 1 9.777-10.71 33.563 33.563 0 0 1 19.216-6.077v13.1a20.277 20.277 0 0 0-11.711 3.7 20.355 20.355 0 0 0-5.962 6.525 20.53 20.53 0 0 0-2.646 8.44 20.43 20.43 0 0 0 5.907 16.225 20.285 20.285 0 0 0 7.45 4.747 20.48 20.48 0 0 0 6.962 1.227zm18.08-10.985a20.496 20.496 0 0 0 2.198-7.33l12.987.852c-1.073 4.113-2.913 8.198-5.523 12.011l-9.661-5.533z" fill="#FFF" fill-rule="evenodd"/></svg>