<svg width="480" height="240" viewBox="0 0 480 240" xmlns="http://www.w3.org/2000/svg"><title>local-gusto-logo</title><path d="M136 99.385L141.809 98v27.785c0 3.046.914 4.861 2.741 5.446-.898 1.692-2.431 2.538-4.6 2.538-2.633 0-3.95-1.815-3.95-5.446V99.385zm10.4 21.507c0-3.769 1.096-6.838 3.287-9.207 2.192-2.37 5.085-3.554 8.679-3.554 3.78 0 6.714 1.138 8.806 3.415 2.09 2.277 3.136 5.392 3.136 9.346 0 3.939-1.065 7.07-3.194 9.393-2.13 2.323-5.046 3.484-8.748 3.484-3.78 0-6.72-1.173-8.818-3.519-2.099-2.346-3.148-5.465-3.148-9.358zm6.04 0c0 5.446 1.976 8.17 5.926 8.17 1.812 0 3.249-.708 4.31-2.124 1.06-1.415 1.591-3.43 1.591-6.046 0-5.369-1.967-8.054-5.901-8.054-1.813 0-3.253.708-4.322 2.124-1.069 1.415-1.603 3.392-1.603 5.93zm41.154-10.338l-2.486 4.315c-1.363-1.277-3.191-1.915-5.484-1.915-2.2 0-3.938.727-5.216 2.18-1.278 1.454-1.917 3.466-1.917 6.035 0 5.185 2.486 7.777 7.459 7.777 2.153 0 4.05-.708 5.692-2.123l2.138 4.546c-1.689 1.046-3.164 1.708-4.426 1.985-1.263.277-2.754.415-4.473.415-3.842 0-6.874-1.111-9.097-3.334-2.222-2.223-3.334-5.312-3.334-9.266 0-3.892 1.216-7.038 3.648-9.438 2.432-2.4 5.747-3.6 9.945-3.6 2.896 0 5.413.807 7.55 2.423zm18.083 20.284c-.527.862-1.445 1.566-2.754 2.112s-2.676.82-4.1.82c-2.68 0-4.787-.666-6.32-1.997-1.534-1.33-2.3-3.22-2.3-5.665 0-2.862 1.08-5.1 3.24-6.716 2.161-1.615 5.232-2.423 9.213-2.423.682 0 1.487.116 2.416.346 0-2.907-1.85-4.361-5.553-4.361-2.184 0-4.012.361-5.483 1.084l-1.255-4.476c1.998-.954 4.376-1.431 7.133-1.431 3.795 0 6.576.857 8.342 2.573 1.765 1.715 2.648 4.965 2.648 9.75v5.284c0 3.293.666 5.362 1.999 6.208-.48.83-1.015 1.342-1.604 1.535-.588.192-1.262.288-2.021.288-.837 0-1.588-.307-2.254-.923-.666-.615-1.115-1.284-1.347-2.008zm-.558-9.161c-.991-.2-1.735-.3-2.23-.3-4.586 0-6.878 1.492-6.878 4.477 0 2.215 1.293 3.323 3.88 3.323 3.485 0 5.228-1.73 5.228-5.192v-2.308zm12.227-22.292L229.155 98v27.785c0 3.046.913 4.861 2.741 5.446-.898 1.692-2.432 2.538-4.6 2.538-2.634 0-3.95-1.815-3.95-5.446V99.385zm10.167 40.269l3.671-4.5c2.03 1.846 4.291 2.77 6.785 2.77 1.673 0 3.051-.247 4.136-.74 1.084-.492 1.626-1.169 1.626-2.03 0-1.462-1.2-2.192-3.601-2.192-.65 0-1.619.076-2.905.23-1.285.154-2.253.231-2.904.231-3.996 0-5.995-1.423-5.995-4.27 0-.815.333-1.615 1-2.4.666-.784 1.44-1.36 2.323-1.73-2.835-1.83-4.252-4.423-4.252-7.777 0-2.646.976-4.834 2.928-6.565 1.951-1.731 4.352-2.596 7.202-2.596 2.231 0 4.097.415 5.6 1.246l2.277-2.631 4.02 3.623-2.765 2.008c.96 1.446 1.44 3.154 1.44 5.123 0 2.815-.863 5.065-2.59 6.75-1.728 1.684-3.908 2.527-6.541 2.527-.418 0-.976-.039-1.673-.116l-.953-.138c-.108 0-.522.165-1.243.496-.72.33-1.08.673-1.08 1.027 0 .615.534.923 1.603.923.48 0 1.286-.115 2.417-.346 1.13-.23 2.098-.346 2.904-.346 5.654 0 8.48 2.254 8.48 6.761 0 2.493-1.13 4.45-3.392 5.873-2.261 1.423-4.987 2.135-8.178 2.135-3.81 0-7.257-1.115-10.34-3.346zm5.809-22.385c0 1.462.407 2.635 1.22 3.52.813.884 1.909 1.326 3.287 1.326 1.38 0 2.44-.43 3.184-1.292.743-.861 1.115-2.046 1.115-3.554 0-1.246-.399-2.3-1.197-3.161-.797-.862-1.831-1.293-3.102-1.293-1.332 0-2.416.416-3.252 1.247-.837.83-1.255 1.9-1.255 3.207zm35.068 16.062v-2.077c-.821.692-1.952 1.284-3.393 1.777-1.44.492-2.764.738-3.973.738-5.777 0-8.666-3.046-8.666-9.138v-16.039h5.808v15.6c0 3.17 1.433 4.754 4.299 4.754a7.02 7.02 0 0 0 3.671-1.015c1.13-.677 1.882-1.462 2.254-2.354v-16.985h5.808v24.739h-5.808zm9.251-1.616l2.068-4.592c1.735 1.37 3.694 2.054 5.878 2.054 2.262 0 3.393-.8 3.393-2.4 0-.939-.341-1.708-1.023-2.308-.681-.6-2.006-1.307-3.973-2.123-4.29-1.77-6.436-4.246-6.436-7.43 0-2.14.821-3.804 2.463-4.997 1.642-1.192 3.74-1.788 6.297-1.788 2.586 0 5.018.577 7.295 1.73l-1.673 4.477c-1.27-1.076-3.036-1.615-5.297-1.615-2.03 0-3.044.8-3.044 2.4 0 .63.333 1.2 1 1.708.665.507 2.09 1.188 4.274 2.042 2.184.854 3.757 1.889 4.717 3.104.96 1.215 1.44 2.685 1.44 4.408 0 2.292-.855 4.096-2.567 5.411-1.712 1.316-4.039 1.973-6.982 1.973-1.657 0-2.986-.134-3.985-.404-.999-.269-2.28-.819-3.845-1.65zm22.337-18.484h-2.88v-4.639h2.88v-5.03l5.81-2.124v7.154h6.83v4.639h-6.83v10.823c0 1.77.278 3.02.836 3.75.557.73 1.533 1.096 2.927 1.096a7.241 7.241 0 0 0 3.904-1.13v5.307c-1.348.461-3.269.692-5.763.692-2.478 0-4.383-.696-5.715-2.088-1.333-1.393-1.999-3.373-1.999-5.943v-12.507zm15.113 7.661c0-3.769 1.096-6.838 3.288-9.207 2.192-2.37 5.085-3.554 8.678-3.554 3.78 0 6.715 1.138 8.806 3.415 2.091 2.277 3.137 5.392 3.137 9.346 0 3.939-1.065 7.07-3.195 9.393-2.13 2.323-5.046 3.484-8.748 3.484-3.78 0-6.718-1.173-8.817-3.519-2.1-2.346-3.149-5.465-3.149-9.358zm6.041 0c0 5.446 1.975 8.17 5.925 8.17 1.813 0 3.25-.708 4.31-2.124 1.061-1.415 1.592-3.43 1.592-6.046 0-5.369-1.967-8.054-5.902-8.054-1.812 0-3.253.708-4.321 2.124-1.07 1.415-1.604 3.392-1.604 5.93z" fill="#FFF" fill-rule="evenodd"/></svg>