<svg width="480" height="240" viewBox="0 0 480 240" xmlns="http://www.w3.org/2000/svg"><title>mila-logo</title><path d="M277.848 133.454v-23.552h2.336v23.552h-2.336zm22.115-2.374v2.179c-.088.002-.176.015-.264.015-5.64 0-9.675-3.86-9.855-9.489h-.017V94.973h2.336v28.424c0 4.511 3.053 7.692 7.536 7.692.09 0 .175-.006.264-.01zm-43.02-21.558c5.771 0 9.873 4.037 9.873 9.877v14.055h-2.337V119.4c0-4.511-3.052-7.692-7.535-7.692-4.483 0-7.583 3.324-7.583 7.835v13.912h-2.338v-13.912c0-4.511-3.1-7.788-7.583-7.788-1.939 0-3.608.615-4.88 1.676l-1.376 1.554c-.819 1.257-1.28 2.813-1.28 4.558v13.912h-2.336v-12.187c.205-9.479 6.074-11.321 8.68-11.668.41-.05.824-.077 1.24-.077 3.577 0 7.345 1.615 8.728 5.794 1.43-3.847 5.103-5.794 8.728-5.794zm61.332.27c1.592.093 10.488 1.425 10.488 11.516v12.146h-2.337v-4.985c-2.29 3.656-5.82 5.365-9.634 5.365-6.582 0-11.972-4.938-11.972-12.108 0-7.17 5.39-12.014 11.972-12.014.438 0 .877.026 1.313.073v-.008c.057.005.114.009.17.015zm-1.483 21.763c13.115 0 13.115-19.611 0-19.611-5.343 0-9.634 3.894-9.634 9.782s4.291 9.83 9.634 9.83zm-115.108-9.43c.347 1.398-.285 2.988-1.208 4.428-.066.118-3.04 5.387-7.696 7.929-.17.095-.342.19-.525.28l-.033.018-.014.004a13.634 13.634 0 0 1-3.63 1.174c-.608.109-1.202.184-1.786.237-1.032.162-2.31.17-3.877-.024l-.21-.025c-.03-.004-.057-.005-.087-.01l-.065-.01a19.874 19.874 0 0 1-2.408-.45c-5.624-1.316-8.877-4.075-10.571-6.058a.094.094 0 0 0-.007-.005l-.034-.043-.161-.192a5.538 5.538 0 0 1-.386-.495c-.682-.913-.967-1.533-.967-1.533h.003c-.58-1.027-1.057-2.118-1.361-3.255-.13-.493-.698-2.036.177-2.24.978-.226 2.16.59 3.048 1.318l1.007.961c.152-1.559.3-3.06.58-4.396.217-1.092.482-2.268.822-3.358.99-3.172 2.324-3.91 3.27-4.031.76-.092 1.409.24 1.925.769 1.038 1.063 1.053 2.04 1.25 2.19.185 0 .067-1.357-.056-1.88-.156-.669-.455-1.41-1.007-1.847a2.688 2.688 0 0 0-1.836-.599 3.12 3.12 0 0 0-1.516.502 23.774 23.774 0 0 1 3.748-5.17c1.3-1.356 3.83-3.817 5.884-2.53 1.315.823 1.89 2.505 2.147 4.114l.004-.01c.01.057.018.12.027.179l.004.027c.293 1.953.206 5.15.14 5.765v.004c.244-.343.497-.68.767-1.004 1-1.2 2.22-2.28 3.687-2.87 1.799-.724 4.18-.662 5.656.733 2.034 1.92 2.145 5.39 1.971 7.97-.01.164-.031.327-.046.49l.008-.005c-.066 1.046-.51 4.029-.915 5.757.632-.873 1.044-1.512 1.491-1.984.476-.502 1.553-1.643 2.381-1.207.172.09.304.224.405.381zm-15.508-31.71a1.18 1.18 0 0 1-1.092-1.282 1.18 1.18 0 0 1 1.288-1.087c.656.044 1.158.63 1.092 1.282a1.189 1.189 0 0 1-1.179 1.11c-.044 0-.065 0-.109-.022zM176 90.112a1.198 1.198 0 0 1 .896-1.434c.655-.13 1.31.282 1.442.913.152.652-.263 1.282-.918 1.434-.087.022-.174.022-.24.022-.567 0-1.07-.37-1.18-.935zm14.522 1c-.632-.152-1.048-.804-.894-1.434a1.228 1.228 0 0 1 1.44-.913h.023c.633.152 1.026.803.873 1.457-.109.543-.611.912-1.157.912-.087 0-.175 0-.285-.022zm-18.867.5a1.202 1.202 0 0 1 .699-1.565c.612-.239 1.31.087 1.55.696s-.065 1.304-.698 1.543a1.414 1.414 0 0 1-.415.087c-.481 0-.94-.303-1.136-.76zm27.035 2.74a1.18 1.18 0 0 1-.437-1.63c.328-.588 1.07-.762 1.638-.436a1.202 1.202 0 1 1-.61 2.24c-.197 0-.416-.066-.59-.174zm-34.788 2.066c-.415-.522-.305-1.261.197-1.674a1.216 1.216 0 0 1 1.703.195c.415.522.306 1.261-.196 1.674a1.19 1.19 0 0 1-.743.262c-.371 0-.72-.153-.96-.457zm38.391.434a1.221 1.221 0 0 1-.175-1.695c.415-.5 1.18-.587 1.682-.174.525.413.612 1.174.197 1.695a1.237 1.237 0 0 1-1.704.175zm-41.644 2.784a1.198 1.198 0 0 1-.044-1.697 1.21 1.21 0 0 1 1.703-.043c.48.456.502 1.196.044 1.696-.24.24-.546.37-.874.37-.283 0-.59-.11-.83-.326zm47.585 3.652h-.023a1.193 1.193 0 0 1 .35-1.652 1.2 1.2 0 0 1 1.66.326 1.187 1.187 0 0 1-.328 1.652 1.135 1.135 0 0 1-.677.217 1.18 1.18 0 0 1-.982-.543zm-52.477 4.044c-.59-.304-.851-1-.546-1.609a1.2 1.2 0 0 1 1.594-.544c.612.283.852 1 .568 1.588a1.199 1.199 0 0 1-1.092.674c-.175 0-.35-.044-.524-.11zm54.638-.24v.023a1.216 1.216 0 0 1 .569-1.61 1.232 1.232 0 0 1 1.615.566 1.204 1.204 0 0 1-1.092 1.718c-.459 0-.895-.261-1.092-.696zm-56.166 4.546a1.199 1.199 0 0 1-.787-1.502c.197-.63.874-.977 1.507-.782.633.195.983.87.786 1.5-.153.5-.633.826-1.135.826-.132 0-.24-.021-.371-.042zm58.677 3.826c-.086-.652.372-1.24 1.027-1.349a1.204 1.204 0 0 1 1.354 1.022c.088.652-.37 1.262-1.004 1.349-.066 0-.131.021-.175.021-.59 0-1.114-.435-1.202-1.043zm-59.704 5.217c-.677-.02-1.201-.543-1.201-1.195 0-.674.546-1.197 1.2-1.197.678 0 1.203.544 1.203 1.197a1.21 1.21 0 0 1-1.202 1.195zm60.01-1.087c0-.652.525-1.174 1.202-1.174.655 0 1.2.522 1.2 1.174 0 .674-.545 1.197-1.2 1.197a1.182 1.182 0 0 1-1.202-1.197zm-60.883 4.61a1.2 1.2 0 0 1 1.026-1.348 1.173 1.173 0 0 1 1.353 1c.088.652-.348 1.26-1.004 1.348-.065.022-.131.022-.196.022a1.212 1.212 0 0 1-1.18-1.022zm60.36 5.544a1.197 1.197 0 0 1-.787-1.5 1.205 1.205 0 0 1 1.508-.783c.632.174.981.848.785 1.479a1.186 1.186 0 0 1-1.135.847c-.131 0-.24-.021-.371-.043zm-57.587 3.5a1.204 1.204 0 0 1 .567-1.609 1.208 1.208 0 0 1 1.594.566 1.214 1.214 0 0 1-.567 1.609c-.175.065-.35.109-.525.109-.436 0-.873-.24-1.069-.674zm55.751.675a1.2 1.2 0 0 1-.567-1.588c.284-.609 1.005-.847 1.616-.565.59.282.852 1 .546 1.587a1.167 1.167 0 0 1-1.07.674c-.175 0-.371-.022-.525-.108zm-53.392 3.434a1.214 1.214 0 0 1 .327-1.674 1.2 1.2 0 0 1 1.659.327 1.182 1.182 0 0 1-.305 1.652 1.191 1.191 0 0 1-.677.218c-.393 0-.765-.175-1.004-.523zm47.933 3.87a1.2 1.2 0 0 1-.065-1.695 1.21 1.21 0 0 1 1.703-.044c.481.435.502 1.197.066 1.674-.24.261-.568.392-.896.392a1.2 1.2 0 0 1-.808-.326zm-41.492 3.066a1.179 1.179 0 0 1-.196-1.673 1.194 1.194 0 0 1 1.703-.174c.503.413.59 1.151.175 1.674-.24.282-.59.434-.939.434a1.19 1.19 0 0 1-.743-.261zm38.02-.086a1.223 1.223 0 0 1 .175-1.697 1.218 1.218 0 0 1 1.703.196c.394.522.328 1.26-.196 1.674a1.191 1.191 0 0 1-.742.261c-.35 0-.7-.152-.94-.434zm-34.11 2.782a1.173 1.173 0 0 1-.416-1.63 1.169 1.169 0 0 1 1.638-.436c.568.327.765 1.066.437 1.631a1.207 1.207 0 0 1-1.048.587 1.28 1.28 0 0 1-.612-.152zm26.008 1.436c-.24-.61.066-1.305.677-1.544.634-.24 1.332.065 1.572.673a1.187 1.187 0 0 1-.698 1.545.986.986 0 0 1-.437.086c-.48 0-.917-.282-1.114-.76zm-17.164 2.043a1.182 1.182 0 0 1-.895-1.435 1.188 1.188 0 0 1 1.441-.892 1.2 1.2 0 0 1 .895 1.436 1.213 1.213 0 0 1-1.18.913c-.086 0-.173 0-.26-.022zm12.732-.87c-.131-.652.261-1.304.917-1.434.633-.152 1.288.26 1.44.891.131.652-.26 1.304-.916 1.435-.088.022-.175.022-.263.022a1.21 1.21 0 0 1-1.178-.913zm-8.016 1.588c-.677-.066-1.179-.63-1.113-1.284.044-.674.611-1.151 1.288-1.108.656.044 1.158.63 1.092 1.282a1.194 1.194 0 0 1-1.2 1.11h-.067zm3.451-1.11a1.211 1.211 0 0 1 1.114-1.282 1.2 1.2 0 0 1 1.288 1.108c.044.675-.437 1.24-1.113 1.284h-.066a1.23 1.23 0 0 1-1.223-1.11zm-12.71-1.02c-.633-.24-.939-.936-.676-1.544.24-.631.94-.915 1.55-.675a1.194 1.194 0 0 1-.437 2.305.99.99 0 0 1-.436-.087zm25.923-2.436a1.175 1.175 0 0 1 .436-1.63c.568-.349 1.31-.131 1.637.434a1.199 1.199 0 0 1-.436 1.63c-.197.11-.393.153-.612.153a1.19 1.19 0 0 1-1.025-.587zm-37.606-5.545c-.458-.5-.437-1.26.065-1.695a1.185 1.185 0 0 1 1.682.064c.46.48.416 1.24-.065 1.697a1.29 1.29 0 0 1-.808.305c-.328 0-.655-.131-.874-.37zm47.979-3.305a1.169 1.169 0 0 1-.329-1.652 1.203 1.203 0 0 1 1.682-.304c.546.37.677 1.109.306 1.652-.24.348-.611.522-.983.522-.24 0-.48-.065-.676-.218zm-55.032-8.935a1.187 1.187 0 0 1 .786-1.5 1.198 1.198 0 0 1 1.506.804c.198.63-.174 1.283-.807 1.478a.912.912 0 0 1-.35.066c-.502 0-.983-.348-1.135-.848zm60.512-3.5c-.654-.109-1.113-.718-1.004-1.37.087-.653.698-1.087 1.354-1a1.233 1.233 0 0 1 1.026 1.37 1.234 1.234 0 0 1-1.2 1.02c-.044 0-.11-.02-.176-.02zm-60.512-9.22c-.655-.108-1.114-.716-1.005-1.37a1.222 1.222 0 0 1 1.376-1 1.217 1.217 0 0 1 1.004 1.37 1.235 1.235 0 0 1-1.2 1.023c-.044 0-.11-.023-.175-.023zm58.59-4.935c-.195-.608.176-1.282.809-1.478a1.216 1.216 0 0 1 1.507.805c.175.63-.175 1.303-.809 1.478a.988.988 0 0 1-.35.065 1.212 1.212 0 0 1-1.156-.87zm-54.048-7.892a1.183 1.183 0 0 1-.306-1.652 1.196 1.196 0 0 1 1.66-.305 1.21 1.21 0 0 1 .328 1.674c-.24.326-.612.5-1.005.5a1.09 1.09 0 0 1-.677-.217zm47.585-3.435c-.458-.478-.415-1.24.065-1.696.502-.435 1.267-.413 1.704.087a1.172 1.172 0 0 1-.066 1.674c-.24.218-.524.326-.808.326a1.21 1.21 0 0 1-.895-.391zM167.59 93.72c-.327-.565-.108-1.305.46-1.631a1.21 1.21 0 0 1 1.638.435c.327.587.13 1.326-.437 1.63a1.308 1.308 0 0 1-.611.174 1.23 1.23 0 0 1-1.05-.608zm27.145-1.305a1.176 1.176 0 0 1-.677-1.544c.241-.63.94-.913 1.573-.674.611.24.895.935.655 1.566a1.209 1.209 0 0 1-1.113.739.975.975 0 0 1-.438-.087zm-14.238-3.13a1.212 1.212 0 0 1 1.114-1.283 1.216 1.216 0 0 1 1.288 1.13 1.192 1.192 0 0 1-1.114 1.261h-.086a1.195 1.195 0 0 1-1.202-1.109z" fill="#FFF" fill-rule="evenodd"/></svg>