<?xml version="1.0" encoding="UTF-8"?>
<svg width="480px" height="240px" viewBox="0 0 480 240" version="1.1" xmlns="http://www.w3.org/2000/svg" xmlns:xlink="http://www.w3.org/1999/xlink">
    <!-- Generator: Sketch 42 (36781) - http://www.bohemiancoding.com/sketch -->
    <title>doppio-logo</title>
    <desc>Created with Sketch.</desc>
    <defs></defs>
    <g id="Page-1" stroke="none" stroke-width="1" fill="none" fill-rule="evenodd">
        <g id="Artboard-Copy" transform="translate(-880.000000, -644.000000)" fill="#FFFFFF">
            <g id="doppio" transform="translate(880.000000, 644.000000)">
                <path d="M300.967474,96.5149423 C300.967474,99.5607661 298.492946,102.029885 295.44045,102.029885 C292.387954,102.029885 289.913426,99.5607661 289.913426,96.5149423 C289.913426,93.4691184 292.387954,91 295.44045,91 C298.492946,91 300.967474,93.4691184 300.967474,96.5149423 Z M196.784919,135.854864 C187.982426,135.854864 180.846825,128.776834 180.846825,120.045363 C180.846825,111.313891 187.982426,104.235861 196.784919,104.235861 C205.587412,104.235861 212.723013,111.313891 212.723013,120.045363 C212.723013,128.776834 205.587412,135.854864 196.784919,135.854864 Z M190.176441,120.238161 C190.176441,123.752883 193.048408,126.600522 196.591329,126.600522 L196.978508,126.600522 C200.525706,126.600522 203.393397,123.752112 203.393397,120.238161 C203.393397,116.723439 200.52143,113.875801 196.978508,113.875801 L196.591329,113.875801 C193.044132,113.875801 190.176441,116.724211 190.176441,120.238161 Z M320.402331,135.854864 C311.599839,135.854864 304.464237,128.776834 304.464237,120.045363 C304.464237,111.313891 311.599839,104.235861 320.402331,104.235861 C329.204824,104.235861 336.340426,111.313891 336.340426,120.045363 C336.340426,128.776834 329.204824,135.854864 320.402331,135.854864 Z M313.793853,120.238161 C313.793853,123.752883 316.66582,126.600522 320.208742,126.600522 L320.595921,126.600522 C324.143119,126.600522 327.010809,123.752112 327.010809,120.238161 C327.010809,116.723439 324.138843,113.875801 320.595921,113.875801 L320.208742,113.875801 C316.661544,113.875801 313.793853,116.724211 313.793853,120.238161 Z M295.44045,104.235861 C298.085935,104.235861 300.230537,106.307523 300.230537,108.863032 L300.230537,131.227693 C300.230537,133.78321 298.085935,135.854864 295.44045,135.854864 C292.794965,135.854864 290.650363,133.78321 290.650363,131.227693 L290.650363,108.863032 C290.650363,106.307523 292.794965,104.235861 295.44045,104.235861 Z M175.874528,99.3600868 L175.874528,120.045363 C175.874528,128.883049 168.741631,136.04718 159.937264,136.04718 C151.13523,136.04718 144,128.885391 144,120.045363 C144,111.207676 151.132897,104.043545 159.937264,104.043545 L166.545398,104.043545 L166.545398,99.3600868 C166.545398,96.7736468 168.633957,94.6766282 171.209963,94.6766282 C173.785969,94.6766282 175.874528,96.7736468 175.874528,99.3600868 Z M153.32913,119.850218 C153.32913,123.407696 156.200947,126.289974 159.743685,126.289974 L160.130843,126.289974 C163.677856,126.289974 166.545398,123.406915 166.545398,119.850218 L166.545398,113.410463 L159.743685,113.410463 C156.196672,113.410463 153.32913,116.293522 153.32913,119.850218 Z M217.078186,140.730638 L217.078186,120.045363 C217.078186,111.207676 224.211084,104.043545 233.01545,104.043545 C241.817484,104.043545 248.952714,111.205334 248.952714,120.045363 C248.952714,128.883049 241.819817,136.04718 233.01545,136.04718 L226.407316,136.04718 L226.407316,140.730638 C226.407316,143.317078 224.318757,145.414097 221.742751,145.414097 C219.166745,145.414097 217.078186,143.317078 217.078186,140.730638 Z M239.623584,120.240507 C239.623584,116.68303 236.751767,113.800751 233.20903,113.800751 L232.821871,113.800751 C229.274858,113.800751 226.407316,116.68381 226.407316,120.240507 L226.407316,126.680262 L233.20903,126.680262 C236.756043,126.680262 239.623584,123.797203 239.623584,120.240507 Z M253.617279,140.730638 L253.617279,120.045363 C253.617279,111.207676 260.750177,104.043545 269.554543,104.043545 C278.356578,104.043545 285.491807,111.205334 285.491807,120.045363 C285.491807,128.883049 278.35891,136.04718 269.554543,136.04718 L262.946409,136.04718 L262.946409,140.730638 C262.946409,143.317078 260.85785,145.414097 258.281844,145.414097 C255.705838,145.414097 253.617279,143.317078 253.617279,140.730638 Z M276.162677,120.240507 C276.162677,116.68303 273.29086,113.800751 269.748123,113.800751 L269.360964,113.800751 C265.813951,113.800751 262.946409,116.68381 262.946409,120.240507 L262.946409,126.680262 L269.748123,126.680262 C273.295136,126.680262 276.162677,123.797203 276.162677,120.240507 Z" id="doppio-logo"></path>
            </g>
        </g>
    </g>
</svg>