<?xml version="1.0" encoding="UTF-8"?>
<svg width="480px" height="240px" viewBox="0 0 480 240" version="1.1" xmlns="http://www.w3.org/2000/svg" xmlns:xlink="http://www.w3.org/1999/xlink">
    <!-- Generator: Sketch 42 (36781) - http://www.bohemiancoding.com/sketch -->
    <title>io-logo</title>
    <desc>Created with Sketch.</desc>
    <defs></defs>
    <g id="Page-1" stroke="none" stroke-width="1" fill="none" fill-rule="evenodd">
        <g id="Artboard-Copy" transform="translate(-880.000000, -348.000000)" fill="#FFFFFF">
            <g id="iO" transform="translate(880.000000, 348.000000)">
                <path d="M196.71661,113.618682 C196.71661,103.831942 203.773958,102.110597 210.01546,102.742671 L210.01546,154.669112 L196.71661,154.669112 L196.71661,113.618682 Z M203.230166,80 C207.931185,80 211.732699,83.4433194 211.732699,87.9740194 C211.732699,92.5945205 207.931185,96.2199627 203.230166,96.2199627 C198.889892,96.2199627 195,92.5945205 195,87.9740194 C195,83.4433194 198.889892,80 203.230166,80 Z M269.454567,103.585225 L264.30977,109.007319 C262.372372,107.296373 260.161663,105.998196 257.803447,105.142723 L262.229898,92.9335589 C265.382258,95.8594981 267.821617,99.507942 269.454567,103.585225 Z M267.542016,112.615431 C266.90387,111.702927 266.198732,110.866674 265.44862,110.093439 L273.311435,101.804644 L274.493373,100.620215 C274.501865,100.628407 274.508784,100.63723 274.517905,100.645422 C276.466311,104.337979 277.71524,108.52775 278.159961,112.957621 L269.576598,116.270492 C269.035007,115.009811 268.359748,113.784105 267.542016,112.615431 Z M271.226531,124.8936 C271.292893,122.493548 270.933719,120.071756 270.137374,117.741654 L281.756727,113.256327 C282.702152,117.185203 282.956907,121.379385 282.445824,125.629023 L271.226531,124.8936 Z M263.292636,140.527493 C265.268719,139.00245 266.889087,137.177125 268.141162,135.1618 L279.439083,141.630943 C277.569621,144.147263 275.331235,146.477995 272.726127,148.527349 C271.915942,149.164779 271.087201,149.760617 270.243679,150.316754 L263.292636,140.527493 Z M250.841082,144.778706 C254.690087,144.782488 258.574947,143.699833 262.013513,141.441258 L269.592009,152.114981 C264.048724,155.865514 257.500572,157.872962 250.841082,157.878949 C247.00969,157.88273 243.144016,157.226079 239.414211,155.864254 C237.614255,155.206343 235.845122,154.38553 234.127254,153.393307 C231.531267,151.894102 229.213309,150.097765 227.189106,148.074248 C223.677573,144.56602 221.051393,140.369947 219.402403,135.834521 C217.741777,131.263174 217.074066,126.349007 217.495513,121.446499 C217.902807,116.712565 219.323461,111.990605 221.848368,107.602326 C224.373904,103.214048 227.739818,99.6163335 231.624992,96.8917377 C237.264202,92.9360796 243.995401,90.8215008 250.841082,90.815199 L250.841082,103.914811 C246.789846,103.91166 242.698037,105.108062 239.129577,107.614615 C236.607186,109.387319 234.61066,111.630771 233.168305,114.140474 C231.674999,116.739979 230.779582,119.625901 230.521996,122.580198 C230.266297,125.510234 230.63868,128.505493 231.676572,131.349194 C232.274146,132.989875 233.09062,134.580772 234.13952,136.079347 C234.833649,137.070624 235.602318,137.975882 236.428857,138.804888 C238.577607,140.959483 241.130506,142.554161 243.878088,143.55174 C246.109869,144.360895 248.466827,144.776816 250.841082,144.778706 Z M268.921782,133.794303 C270.112842,131.502643 270.853833,129.013106 271.118967,126.464646 L284.105821,127.315708 C283.032704,131.429227 281.193435,135.514388 278.583295,139.327309 L268.921782,133.794303 Z" id="io-logo"></path>
            </g>
        </g>
    </g>
</svg>