<?xml version="1.0" encoding="UTF-8"?>
<svg width="480px" height="240px" viewBox="0 0 480 240" version="1.1" xmlns="http://www.w3.org/2000/svg" xmlns:xlink="http://www.w3.org/1999/xlink">
    <!-- Generator: Sketch 42 (36781) - http://www.bohemiancoding.com/sketch -->
    <title>local-gusto-logo</title>
    <desc>Created with Sketch.</desc>
    <defs></defs>
    <g id="Page-1" stroke="none" stroke-width="1" fill="none" fill-rule="evenodd">
        <g id="Artboard-Copy" transform="translate(-880.000000, -940.000000)" fill="#FFFFFF">
            <g id="Group-3" transform="translate(880.000000, 940.000000)">
                <path d="M136,99.3846154 L141.808697,98 L141.808697,125.784615 C141.808697,128.830784 142.72259,130.646151 144.550403,131.230769 C143.651986,132.923085 142.118505,133.769231 139.949914,133.769231 C137.316625,133.769231 136,131.953864 136,128.323077 L136,99.3846154 Z M146.399725,120.892308 C146.399725,117.123058 147.495622,114.053858 149.687448,111.684615 C151.879274,109.315373 154.771977,108.130769 158.365642,108.130769 C162.145187,108.130769 165.080486,109.269219 167.171627,111.546154 C169.262769,113.823088 170.308324,116.938442 170.308324,120.892308 C170.308324,124.830789 169.243407,127.961527 167.11354,130.284615 C164.983674,132.607704 162.067737,133.769231 158.365642,133.769231 C154.586097,133.769231 151.646926,132.596166 149.548039,130.25 C147.449153,127.903834 146.399725,124.784635 146.399725,120.892308 Z M152.440771,120.892308 C152.440771,126.338489 154.415708,129.061538 158.365642,129.061538 C160.177965,129.061538 161.614635,128.353853 162.675695,126.938462 C163.736756,125.52307 164.267279,123.507705 164.267279,120.892308 C164.267279,115.52305 162.300086,112.838462 158.365642,112.838462 C156.553319,112.838462 155.112777,113.546147 154.043971,114.961538 C152.975165,116.37693 152.440771,118.353833 152.440771,120.892308 Z M193.593897,110.553846 L191.107774,114.869231 C189.74466,113.592301 187.916875,112.953846 185.624364,112.953846 C183.424793,112.953846 181.686074,113.680762 180.408154,115.134615 C179.130234,116.588469 178.491284,118.599987 178.491284,121.169231 C178.491284,126.353872 180.977381,128.946154 185.949651,128.946154 C188.102752,128.946154 190.000241,128.238469 191.642175,126.823077 L193.779775,131.369231 C192.091372,132.41539 190.615978,133.076922 189.353548,133.353846 C188.091118,133.630771 186.600234,133.769231 184.880851,133.769231 C181.039346,133.769231 178.007237,132.657703 175.784431,130.434615 C173.561625,128.211527 172.450238,125.123097 172.450238,121.169231 C172.450238,117.276904 173.66618,114.130781 176.0981,111.730769 C178.530021,109.330757 181.844817,108.130769 186.04259,108.130769 C188.939209,108.130769 191.456286,108.938453 193.593897,110.553846 Z M211.676547,130.838462 C211.149889,131.700004 210.232124,132.403843 208.923224,132.95 C207.614324,133.496157 206.247358,133.769231 204.822284,133.769231 C202.142525,133.769231 200.035925,133.103853 198.502421,131.773077 C196.968917,130.442301 196.202177,128.553858 196.202177,126.107692 C196.202177,123.24614 197.282584,121.0077 199.44343,119.392308 C201.604276,117.776915 204.67511,116.969231 208.656024,116.969231 C209.337581,116.969231 210.143046,117.084614 211.072442,117.315385 C211.072442,114.407678 209.221422,112.953846 205.519328,112.953846 C203.335246,112.953846 201.507461,113.315381 200.035917,114.038462 L198.781239,109.561538 C200.77944,108.607688 203.15711,108.130769 205.914319,108.130769 C209.709354,108.130769 212.489756,108.988453 214.255608,110.703846 C216.021461,112.419239 216.904374,115.669207 216.904374,120.453846 L216.904374,125.738462 C216.904374,129.030786 217.570432,131.099996 218.902566,131.946154 C218.422378,132.776927 217.887983,133.288461 217.299366,133.480769 C216.710748,133.673078 216.036946,133.769231 215.277939,133.769231 C214.441483,133.769231 213.690232,133.461542 213.024165,132.846154 C212.358097,132.230766 211.908896,131.561542 211.676547,130.838462 Z M211.118912,121.676923 C210.127556,121.476922 209.38405,121.376923 208.888372,121.376923 C204.303351,121.376923 202.010874,122.869216 202.010874,125.853846 C202.010874,128.069242 203.304265,129.176923 205.891084,129.176923 C209.37632,129.176923 211.118912,127.446171 211.118912,123.984615 L211.118912,121.676923 Z M223.345838,99.3846154 L229.154535,98 L229.154535,125.784615 C229.154535,128.830784 230.068428,130.646151 231.896241,131.230769 C230.997824,132.923085 229.464344,133.769231 227.295752,133.769231 C224.662463,133.769231 223.345838,131.953864 223.345838,128.323077 L223.345838,99.3846154 Z M233.513216,139.653846 L237.184312,135.153846 C239.213494,137.000009 241.474991,137.923077 243.968871,137.923077 C245.641784,137.923077 247.020368,137.676926 248.104663,137.184615 C249.188959,136.692305 249.731099,136.015389 249.731099,135.153846 C249.731099,133.6923 248.530647,132.961538 246.129706,132.961538 C245.479129,132.961538 244.511022,133.038461 243.225358,133.192308 C241.939693,133.346155 240.971586,133.423077 240.321009,133.423077 C236.324605,133.423077 234.326433,132.000014 234.326433,129.153846 C234.326433,128.338457 234.659462,127.538465 235.325529,126.753846 C235.991596,125.969227 236.766082,125.39231 237.649008,125.023077 C234.81435,123.192299 233.397042,120.600017 233.397042,117.246154 C233.397042,114.599987 234.372893,112.411547 236.324625,110.680769 C238.276357,108.949991 240.677261,108.084615 243.52741,108.084615 C245.757961,108.084615 247.62447,108.499996 249.126994,109.330769 L251.404004,106.7 L255.423622,110.323077 L252.658682,112.330769 C253.619058,113.77693 254.099239,115.484606 254.099239,117.453846 C254.099239,120.269245 253.235688,122.519222 251.50856,124.203846 C249.781432,125.88847 247.601256,126.730769 244.967967,126.730769 C244.549738,126.730769 243.992109,126.692308 243.295062,126.615385 L242.342436,126.476923 C242.234006,126.476923 241.819656,126.642306 241.099374,126.973077 C240.379092,127.303848 240.018957,127.646152 240.018957,128 C240.018957,128.615388 240.553351,128.923077 241.622157,128.923077 C242.102345,128.923077 242.90781,128.807693 244.038575,128.576923 C245.169341,128.346153 246.137447,128.230769 246.942924,128.230769 C252.596751,128.230769 255.423622,130.484593 255.423622,134.992308 C255.423622,137.484628 254.292874,139.442301 252.031343,140.865385 C249.769812,142.288469 247.043624,143 243.852697,143 C240.042172,143 236.595713,141.884627 233.513216,139.653846 Z M239.321913,117.269231 C239.321913,118.730777 239.728518,119.903842 240.541739,120.788462 C241.354961,121.673081 242.450858,122.115385 243.829462,122.115385 C245.208067,122.115385 246.269111,121.68462 247.012628,120.823077 C247.756145,119.961534 248.127898,118.776931 248.127898,117.269231 C248.127898,116.023071 247.729038,114.969235 246.931307,114.107692 C246.133575,113.24615 245.099637,112.815385 243.829462,112.815385 C242.497328,112.815385 241.413048,113.230765 240.576592,114.061538 C239.740135,114.892312 239.321913,115.961532 239.321913,117.269231 Z M274.38975,133.330769 L274.38975,131.253846 C273.568784,131.946157 272.438035,132.538459 270.997471,133.030769 C269.556907,133.523079 268.232537,133.769231 267.024322,133.769231 C261.246576,133.769231 258.357746,130.723107 258.357746,124.630769 L258.357746,108.592308 L264.166443,108.592308 L264.166443,124.192308 C264.166443,127.361554 265.599241,128.946154 268.464879,128.946154 C269.781524,128.946154 271.00521,128.607696 272.135976,127.930769 C273.266741,127.253843 274.017992,126.469235 274.38975,125.576923 L274.38975,108.592308 L280.198448,108.592308 L280.198448,133.330769 L274.38975,133.330769 Z M283.640954,131.715385 L285.70885,127.123077 C287.443723,128.492315 289.403171,129.176923 291.587252,129.176923 C293.848783,129.176923 294.979531,128.376931 294.979531,126.776923 C294.979531,125.838457 294.638758,125.069234 293.957201,124.469231 C293.275643,123.869228 291.951274,123.161543 289.984052,122.346154 C285.693339,120.576914 283.548015,118.100016 283.548015,114.915385 C283.548015,112.776912 284.368969,111.111544 286.010903,109.919231 C287.652836,108.726917 289.751691,108.130769 292.307531,108.130769 C294.89435,108.130769 297.326234,108.707687 299.603255,109.861538 L297.93035,114.338462 C296.660175,113.261533 294.894349,112.723077 292.632818,112.723077 C290.603636,112.723077 289.58906,113.523069 289.58906,115.123077 C289.58906,115.753849 289.922089,116.323074 290.588156,116.830769 C291.254224,117.338464 292.679276,118.019227 294.863357,118.873077 C297.047439,119.726927 298.619644,120.761532 299.58002,121.976923 C300.540396,123.192314 301.020577,124.66153 301.020577,126.384615 C301.020577,128.676935 300.164771,130.480763 298.453132,131.796154 C296.741494,133.111545 294.414166,133.769231 291.471078,133.769231 C289.813655,133.769231 288.485413,133.634617 287.486312,133.365385 C286.487211,133.096153 285.205438,132.546158 283.640954,131.715385 Z M305.978353,113.230769 L303.097239,113.230769 L303.097239,108.592308 L305.978353,108.592308 L305.978353,103.561538 L311.78705,101.438462 L311.78705,108.592308 L318.618078,108.592308 L318.618078,113.230769 L311.78705,113.230769 L311.78705,124.053846 C311.78705,125.823086 312.065865,127.073073 312.623503,127.803846 C313.18114,128.534619 314.156992,128.9 315.551086,128.9 C316.945181,128.9 318.246316,128.523081 319.454531,127.769231 L319.454531,133.076923 C318.106906,133.538464 316.186183,133.769231 313.692303,133.769231 C311.213913,133.769231 309.308679,133.073084 307.976545,131.680769 C306.64441,130.288455 305.978353,128.307705 305.978353,125.738462 L305.978353,113.230769 Z M321.091402,120.892308 C321.091402,117.123058 322.187298,114.053858 324.379124,111.684615 C326.57095,109.315373 329.463653,108.130769 333.057318,108.130769 C336.836863,108.130769 339.772162,109.269219 341.863303,111.546154 C343.954445,113.823088 345,116.938442 345,120.892308 C345,124.830789 343.935083,127.961527 341.805216,130.284615 C339.67535,132.607704 336.759413,133.769231 333.057318,133.769231 C329.277773,133.769231 326.338602,132.596166 324.239715,130.25 C322.140829,127.903834 321.091402,124.784635 321.091402,120.892308 Z M327.132447,120.892308 C327.132447,126.338489 329.107384,129.061538 333.057318,129.061538 C334.869641,129.061538 336.306311,128.353853 337.367372,126.938462 C338.428432,125.52307 338.958955,123.507705 338.958955,120.892308 C338.958955,115.52305 336.991762,112.838462 333.057318,112.838462 C331.244995,112.838462 329.804453,113.546147 328.735647,114.961538 C327.666842,116.37693 327.132447,118.353833 327.132447,120.892308 Z" id="local-gusto-logo"></path>
            </g>
        </g>
    </g>
</svg>