<?xml version="1.0" encoding="UTF-8"?>
<svg width="480px" height="240px" viewBox="0 0 480 240" version="1.1" xmlns="http://www.w3.org/2000/svg" xmlns:xlink="http://www.w3.org/1999/xlink">
    <!-- Generator: Sketch 42 (36781) - http://www.bohemiancoding.com/sketch -->
    <title>mila-logo</title>
    <desc>Created with Sketch.</desc>
    <defs></defs>
    <g id="Page-1" stroke="none" stroke-width="1" fill="none" fill-rule="evenodd">
        <g id="Artboard-Copy" transform="translate(-880.000000, -1236.000000)" fill="#FFFFFF">
            <g id="Group-4" transform="translate(880.000000, 1236.000000)">
                <path d="M277.847662,133.454493 L277.847662,109.902199 L280.184227,109.902199 L280.184227,133.454493 L277.847662,133.454493 Z M299.962911,131.079816 L299.962911,133.258726 C299.8748,133.260984 299.787013,133.273884 299.698578,133.273884 C294.058817,133.273884 290.023845,129.413059 289.843735,123.785497 L289.826566,123.785497 L289.826566,94.9729851 L292.163131,94.9729851 L292.163131,123.396866 C292.163131,127.908204 295.215599,131.089491 299.698578,131.089491 C299.788308,131.089491 299.874476,131.082718 299.962911,131.079816 Z M256.943942,109.522276 C262.71425,109.522276 266.815953,113.55855 266.815953,119.399294 L266.815953,133.454493 L264.479388,133.454493 L264.479388,119.399294 C264.479388,114.887956 261.42692,111.706669 256.943942,111.706669 C252.46064,111.706669 249.360553,115.030508 249.360553,119.541523 L249.360553,133.454493 L247.023016,133.454493 L247.023016,119.541523 C247.023016,115.030508 243.922929,111.754079 239.439951,111.754079 C237.501182,111.754079 235.831605,112.369115 234.559177,113.429544 L233.184384,114.984066 C232.365144,116.240906 231.904181,117.79704 231.904181,119.541523 L231.904181,133.454493 L229.567616,133.454493 L229.567616,121.266978 C229.773316,111.788266 235.641778,109.945738 238.248831,109.599035 C238.658936,109.54969 239.072281,109.522276 239.48757,109.522276 C243.064817,109.522276 246.832864,111.136786 248.215756,115.315611 C249.64659,111.469299 253.319075,109.522276 256.943942,109.522276 Z M318.275127,109.791576 C319.866959,109.885105 328.762621,111.217414 328.762621,121.307937 L328.762621,133.454493 L326.425732,133.454493 L326.425732,128.468735 C324.136138,132.124764 320.606833,133.834093 316.791815,133.834093 C310.210042,133.834093 304.820038,128.896067 304.820038,121.725594 C304.820038,114.555766 310.210042,109.712237 316.791815,109.712237 C317.230103,109.712237 317.668715,109.738361 318.10506,109.784803 L318.10506,109.777063 C318.161749,109.781901 318.219086,109.785771 318.275127,109.791576 Z M316.791815,131.555202 C329.907418,131.555202 329.907418,111.94404 316.791815,111.94404 C311.449429,111.94404 307.157574,115.837763 307.157574,121.725594 C307.157574,127.613748 311.449429,131.555202 316.791815,131.555202 Z M201.684318,122.12439 C202.030608,123.52346 201.398605,125.113458 200.476029,126.552842 C200.409946,126.671205 197.435547,131.939808 192.780234,134.481548 C192.609842,134.57669 192.438479,134.671187 192.254806,134.762458 C192.243792,134.767619 192.233426,134.774391 192.222412,134.779874 C192.217553,134.782132 192.213018,134.781809 192.208159,134.784067 C191.201684,135.27816 190.004085,135.702589 188.57811,135.958021 C187.970402,136.067031 187.376299,136.141854 186.791915,136.194747 C185.759525,136.357294 184.481913,136.36568 182.915349,136.170558 C182.844731,136.16314 182.77476,136.154433 182.704465,136.14637 C182.674663,136.142177 182.6481,136.140564 182.617974,136.136372 C182.595946,136.133469 182.575214,136.129276 182.553186,136.126051 C181.715807,136.021879 180.912116,135.868684 180.145031,135.675175 C174.521467,134.359637 171.26751,131.601167 169.573638,129.618024 C169.572018,129.616411 169.569103,129.613831 169.567483,129.612541 C169.555173,129.596738 169.544807,129.584482 169.533145,129.569969 C169.478724,129.505788 169.423006,129.44064 169.371824,129.378072 C169.27691,129.269707 169.166772,129.139089 168.98569,128.883335 C168.304125,127.970295 168.019059,127.350421 168.019059,127.350421 L168.022298,127.350421 C167.441802,126.322889 166.964965,125.231821 166.660787,124.094956 C166.531212,123.602154 165.963024,122.05892 166.837981,121.855735 C167.81595,121.62933 168.998,122.444648 169.88559,123.173209 L170.892713,124.133981 C171.045288,122.575266 171.193328,121.074604 171.472562,119.73778 C171.689925,118.646067 171.95523,117.470178 172.295365,116.3804 C173.28532,113.208467 174.618972,112.469908 175.564871,112.348964 C176.325478,112.256725 176.974002,112.588916 177.489711,113.117517 C178.528256,114.180849 178.54251,115.158714 178.740436,115.307393 C178.92508,115.307393 178.806843,113.950896 178.684395,113.428099 C178.528256,112.759203 178.228938,112.017742 177.676947,111.580734 C177.18197,111.188878 176.552234,110.941832 175.84119,110.982146 C175.32289,111.011495 174.788392,111.180493 174.324837,111.483657 C175.339734,109.603718 176.587544,107.864395 178.073447,106.313421 C179.372763,104.957569 181.902071,102.49678 183.95681,103.783614 C185.272322,104.607317 185.84634,106.28891 186.104195,107.897937 L186.107758,107.888261 C186.117476,107.945024 186.125575,108.007269 186.134969,108.066612 C186.136265,108.075642 186.13756,108.084673 186.138856,108.093703 C186.43202,110.046531 186.344557,113.243621 186.278474,113.858979 L186.278474,113.863172 C186.523047,113.519693 186.776042,113.182343 187.046207,112.858538 C188.046203,111.659105 189.265506,110.579325 190.732621,109.989123 C192.531773,109.2654 194.912394,109.326678 196.389227,110.722199 C198.423234,112.642775 198.534021,116.111746 198.360066,118.692187 C198.349052,118.856025 198.328968,119.018895 198.314391,119.18241 L198.322165,119.177249 C198.255758,120.22252 197.811639,123.205783 197.407364,124.93414 C198.038719,124.061415 198.451417,123.421545 198.898127,122.950028 C199.374316,122.447873 200.451086,121.306815 201.279395,121.743178 C201.451407,121.833804 201.582601,121.967326 201.684318,122.12439 Z M186.176109,90.4156952 C185.52143,90.3721557 185.019326,89.7851787 185.084438,89.1333761 C185.12817,88.4802835 185.717737,87.9803854 186.372416,88.0461784 C187.028066,88.0897179 187.530494,88.676695 187.464411,89.3284976 C187.420679,89.9593367 186.896871,90.4379488 186.284952,90.4379488 C186.241221,90.4379488 186.219841,90.4379488 186.176109,90.4156952 Z M175.999272,90.1109187 C175.847021,89.4591161 176.261662,88.8285995 176.894961,88.676695 C177.549964,88.5460765 178.205614,88.9592181 178.336809,89.5897346 C178.48906,90.2415372 178.074419,90.8723763 177.418769,91.0239583 C177.332277,91.0462118 177.244814,91.0462118 177.178731,91.0462118 C176.611515,91.0462118 176.109087,90.6769323 175.999272,90.1109187 Z M190.521414,91.1110373 C189.889087,90.9594553 189.47315,90.3073302 189.626697,89.6768137 C189.779272,89.0240435 190.434922,88.6331555 191.067249,88.763774 L191.089601,88.763774 C191.723224,88.9156785 192.116485,89.5674811 191.962938,90.2205737 C191.854419,90.7640113 191.351991,91.1332908 190.806155,91.1332908 C190.718692,91.1332908 190.631229,91.1332908 190.521414,91.1110373 Z M171.654292,91.6112579 C171.413282,90.9817088 171.719403,90.2850767 172.352702,90.0464157 C172.964621,89.8074322 173.663031,90.1334947 173.903069,90.7417578 C174.143107,91.3509884 173.837958,92.0463305 173.204659,92.285314 C173.073464,92.3288535 172.920889,92.372393 172.789694,92.372393 C172.30897,92.372393 171.850274,92.068584 171.654292,91.6112579 Z M198.689187,94.3510218 C198.09962,94.0252817 197.924693,93.2854326 198.252195,92.7203865 C198.580344,92.1334095 199.322486,91.9592514 199.890025,92.285314 C200.458213,92.6123441 200.654519,93.3512256 200.327018,93.9159492 C200.108359,94.3074823 199.693719,94.5251798 199.279078,94.5251798 C199.082772,94.5251798 198.864114,94.4593868 198.689187,94.3510218 Z M163.901159,96.4170521 C163.486194,95.8949005 163.596009,95.1560189 164.098437,94.7428773 C164.621921,94.3287682 165.386415,94.4158473 165.801379,94.9383213 C166.21602,95.4595054 166.107177,96.1993545 165.605073,96.6124961 C165.386415,96.7866541 165.124025,96.8737331 164.861959,96.8737331 C164.490726,96.8737331 164.142169,96.7208611 163.901159,96.4170521 Z M202.29235,96.8511571 C201.789922,96.438338 201.702782,95.6772029 202.117423,95.1560189 C202.532064,94.6557983 203.296881,94.5687193 203.798985,94.9818609 C204.323765,95.3946799 204.410904,96.155815 203.996264,96.6773216 C203.755254,96.9604896 203.406696,97.1123941 203.056843,97.1123941 C202.794454,97.1123941 202.532064,97.0253151 202.29235,96.8511571 Z M160.647849,99.634783 C160.166801,99.1774569 160.145745,98.4172893 160.604118,97.9383547 C161.06249,97.4607102 161.827308,97.4384567 162.30706,97.8948152 C162.787784,98.3514963 162.809164,99.0913454 162.350792,99.5912435 C162.110754,99.830227 161.804956,99.9608455 161.477455,99.9608455 C161.193685,99.9608455 160.887887,99.851513 160.647849,99.634783 Z M208.232725,103.286941 L208.210373,103.286941 C207.861492,102.743181 207.991715,102.0043 208.559902,101.63502 C209.106062,101.265418 209.848204,101.417323 210.219113,101.96076 C210.591318,102.50452 210.437771,103.243402 209.891936,103.612681 C209.673277,103.765554 209.455591,103.830379 209.214581,103.830379 C208.843672,103.830379 208.451383,103.634935 208.232725,103.286941 Z M155.755737,107.330633 C155.165846,107.026824 154.904752,106.330514 155.209578,105.722251 C155.494319,105.134952 156.21411,104.896291 156.803677,105.178491 C157.41592,105.461014 157.655958,106.17861 157.372188,106.765909 C157.15353,107.200982 156.738889,107.439966 156.280193,107.439966 C156.105267,107.439966 155.930664,107.396426 155.755737,107.330633 Z M210.39404,107.091649 L210.39404,107.113903 C210.11027,106.504672 210.37266,105.786754 210.962551,105.504554 C211.573498,105.222031 212.27288,105.483268 212.577706,106.070245 C212.862447,106.678508 212.600381,107.396426 211.988139,107.678627 C211.835564,107.74442 211.660961,107.787959 211.486035,107.787959 C211.027338,107.787959 210.591318,107.527045 210.39404,107.091649 Z M154.227722,111.636529 C153.594423,111.440118 153.24457,110.765739 153.440552,110.135222 C153.637831,109.504706 154.315185,109.15768 154.948484,109.352801 C155.580811,109.548245 155.930664,110.222301 155.734358,110.852818 C155.580811,111.353039 155.101059,111.678779 154.598631,111.678779 C154.467436,111.678779 154.358917,111.657815 154.227722,111.636529 Z M212.905207,115.462523 C212.818716,114.81072 213.277412,114.223743 213.932091,114.114088 C214.586769,114.027332 215.198688,114.48369 215.286152,115.136461 C215.373615,115.788263 214.915242,116.397816 214.281944,116.484895 C214.215536,116.484895 214.150749,116.506181 214.107017,116.506181 C213.517126,116.506181 212.99267,116.070786 212.905207,115.462523 Z M153.200838,120.680491 C152.523808,120.659205 152,120.136731 152,119.484929 C152,118.810873 152.54616,118.288398 153.200838,118.288398 C153.877869,118.288398 154.402648,118.832158 154.402648,119.484929 C154.402648,120.136731 153.856489,120.680491 153.200838,120.680491 Z M213.211329,119.593294 C213.211329,118.941491 213.735784,118.419017 214.412815,118.419017 C215.067817,118.419017 215.613653,118.941491 215.613653,119.593294 C215.613653,120.26735 215.067817,120.789824 214.412815,120.789824 C213.735784,120.789824 213.211329,120.26735 213.211329,119.593294 Z M152.327501,124.202676 C152.240038,123.550874 152.69841,122.941643 153.354385,122.854564 C154.009064,122.746199 154.620011,123.20288 154.707474,123.854683 C154.794937,124.507453 154.358917,125.115716 153.702942,125.202795 C153.637831,125.225048 153.571747,125.225048 153.506636,125.225048 C152.938448,125.225048 152.414965,124.789976 152.327501,124.202676 Z M212.687521,129.746707 C212.054222,129.551263 211.704693,128.877207 211.900675,128.246368 C212.097954,127.615851 212.774984,127.268825 213.408607,127.463947 C214.040934,127.638105 214.390463,128.312483 214.19448,128.943 C214.040934,129.464184 213.560858,129.790246 213.058754,129.790246 C212.927559,129.790246 212.818716,129.76896 212.687521,129.746707 Z M155.101059,133.247928 C154.817289,132.638375 155.057327,131.943033 155.668274,131.638257 C156.257841,131.356056 156.978603,131.617293 157.262373,132.20427 C157.547115,132.812533 157.284725,133.530129 156.695158,133.812652 C156.520231,133.878445 156.345305,133.921985 156.170378,133.921985 C155.734358,133.921985 155.297041,133.682033 155.101059,133.247928 Z M210.852412,133.921985 C210.262845,133.638494 210.001751,132.920898 210.285196,132.333599 C210.568966,131.725336 211.289728,131.486675 211.900675,131.768875 C212.490566,132.051398 212.752632,132.768994 212.446835,133.355971 C212.250528,133.791366 211.813212,134.03035 211.377191,134.03035 C211.202265,134.03035 211.005958,134.007773 210.852412,133.921985 Z M157.459651,137.356123 C157.088418,136.812685 157.240993,136.052518 157.786829,135.681948 C158.332988,135.312669 159.07513,135.465541 159.446039,136.008978 C159.818244,136.552738 159.687049,137.29162 159.141214,137.660899 C158.922556,137.812804 158.682517,137.878597 158.464183,137.878597 C158.070599,137.878597 157.699366,137.704439 157.459651,137.356123 Z M205.393084,141.226946 C204.913332,140.770588 204.869601,140.030416 205.327973,139.530518 C205.786669,139.052874 206.551163,139.030298 207.030915,139.486979 C207.511963,139.922051 207.533019,140.683509 207.096998,141.161153 C206.857284,141.42239 206.528811,141.552687 206.20131,141.552687 C205.917864,141.552687 205.634094,141.444644 205.393084,141.226946 Z M163.901159,144.291805 C163.377675,143.878986 163.290212,143.140105 163.704853,142.618598 C164.119817,142.096447 164.884311,142.009368 165.407795,142.444763 C165.911194,142.857582 165.997362,143.596463 165.582721,144.118615 C165.342683,144.401138 164.993154,144.553042 164.644273,144.553042 C164.381883,144.553042 164.119817,144.465963 163.901159,144.291805 Z M201.921117,144.205694 C201.506476,143.683542 201.593939,142.922407 202.096043,142.509266 C202.619527,142.096447 203.384345,142.183526 203.798985,142.70471 C204.19257,143.226861 204.127459,143.965743 203.602679,144.378884 C203.384345,144.553042 203.121955,144.640121 202.860537,144.640121 C202.511008,144.640121 202.161155,144.488217 201.921117,144.205694 Z M167.810119,146.988352 C167.242904,146.66229 167.045625,145.922441 167.395478,145.357717 C167.722656,144.77074 168.443418,144.575296 169.033309,144.922322 C169.601496,145.249352 169.797803,145.988234 169.470301,146.552957 C169.229292,146.944813 168.837003,147.140257 168.422362,147.140257 C168.225084,147.140257 168.007397,147.096717 167.810119,146.988352 Z M193.819427,148.423543 C193.579389,147.814313 193.884538,147.118971 194.496457,146.879987 C195.13008,146.640036 195.82849,146.944813 196.068204,147.553076 C196.309214,148.162629 196.003093,148.857971 195.369794,149.0976 C195.238599,149.162425 195.086348,149.183711 194.932802,149.183711 C194.452726,149.183711 194.015733,148.90151 193.819427,148.423543 Z M176.655247,150.46732 C175.999272,150.314448 175.606983,149.684899 175.759558,149.031806 C175.911809,148.380004 176.545432,147.988471 177.201082,148.140053 C177.834381,148.292925 178.249346,148.923764 178.095799,149.575567 C177.964604,150.119004 177.4625,150.488606 176.916341,150.488606 C176.830173,150.488606 176.74271,150.488606 176.655247,150.46732 Z M189.386983,149.59782 C189.255788,148.944727 189.648077,148.292925 190.303727,148.162629 C190.93735,148.010724 191.592029,148.423543 191.74428,149.054383 C191.875475,149.706185 191.483186,150.357988 190.827535,150.488606 C190.740072,150.51086 190.652609,150.51086 190.565145,150.51086 C190.01931,150.51086 189.516882,150.141258 189.386983,149.59782 Z M181.37146,151.184916 C180.69443,151.119123 180.192002,150.554399 180.258085,149.901307 C180.301817,149.227251 180.869356,148.749606 181.546387,148.793145 C182.202037,148.836685 182.704465,149.423662 182.638058,150.075465 C182.594326,150.705981 182.070843,151.184916 181.437544,151.184916 L181.37146,151.184916 Z M184.822048,150.075465 C184.778317,149.423662 185.28042,148.836685 185.936395,148.793145 C186.613425,148.749606 187.180641,149.249504 187.224373,149.901307 C187.268104,150.575685 186.787056,151.141376 186.110998,151.184916 L186.044914,151.184916 C185.411615,151.184916 184.888132,150.705981 184.822048,150.075465 Z M172.112664,149.054383 C171.479365,148.814431 171.173244,148.119089 171.435633,147.510504 C171.675671,146.879987 172.375054,146.596497 172.986001,146.836448 C173.596948,147.075431 173.903069,147.770773 173.663031,148.380004 C173.467049,148.857971 173.029732,149.141139 172.548684,149.141139 C172.396434,149.141139 172.243859,149.118886 172.112664,149.054383 Z M198.034508,146.61875 C197.684655,146.031773 197.903313,145.314178 198.470529,144.988115 C199.03904,144.640121 199.781182,144.857819 200.108359,145.422543 C200.435861,145.988234 200.239554,146.727115 199.672339,147.053178 C199.475061,147.16251 199.279078,147.20605 199.06042,147.20605 C198.645455,147.20605 198.252195,146.988352 198.034508,146.61875 Z M160.429191,141.074074 C159.970819,140.574176 159.992199,139.814009 160.494303,139.378614 C160.975027,138.922255 161.739844,138.965795 162.175865,139.443439 C162.635533,139.922051 162.591801,140.683509 162.110754,141.139867 C161.871039,141.335311 161.586298,141.444644 161.302528,141.444644 C160.975027,141.444644 160.647849,141.314025 160.429191,141.074074 Z M208.407652,137.769264 C207.83914,137.399662 207.707945,136.660781 208.079178,136.117343 C208.451383,135.573906 209.214581,135.422001 209.760741,135.812567 C210.306576,136.182169 210.437771,136.922018 210.066862,137.465455 C209.826824,137.812804 209.455591,137.986962 209.08371,137.986962 C208.843672,137.986962 208.603634,137.922137 208.407652,137.769264 Z M153.375765,128.833667 C153.179458,128.181865 153.528016,127.528772 154.161638,127.333651 C154.794937,127.138207 155.471968,127.485233 155.668274,128.138325 C155.865552,128.768842 155.494319,129.420644 154.861021,129.616088 C154.751206,129.659628 154.642362,129.681881 154.511168,129.681881 C154.009064,129.681881 153.528016,129.333565 153.375765,128.833667 Z M213.888359,125.333413 C213.23368,125.225048 212.774984,124.615818 212.883827,123.964015 C212.97129,123.310923 213.582238,122.876818 214.238212,122.963897 C214.892891,123.072262 215.351263,123.680525 215.2638,124.333295 C215.154957,124.920594 214.652853,125.354699 214.063285,125.354699 C214.019554,125.354699 213.954442,125.333413 213.888359,125.333413 Z M153.375765,116.114326 C152.721086,116.005961 152.26239,115.397698 152.371233,114.744927 C152.480076,114.093125 153.091995,113.65773 153.746674,113.744809 C154.402648,113.853174 154.838669,114.462404 154.751206,115.114207 C154.642362,115.701507 154.140259,116.136579 153.550691,116.136579 C153.506636,116.136579 153.440552,116.114326 153.375765,116.114326 Z M211.966759,111.17888 C211.770776,110.570617 212.141685,109.896561 212.774984,109.701117 C213.408607,109.504706 214.084665,109.875275 214.281944,110.505792 C214.456546,111.135341 214.107017,111.809397 213.473394,111.983555 C213.364875,112.027095 213.23368,112.049348 213.123865,112.049348 C212.600381,112.049348 212.119333,111.701032 211.966759,111.17888 Z M157.918024,103.286941 C157.372188,102.917339 157.240993,102.178458 157.612226,101.63502 C157.983135,101.09126 158.726249,100.960642 159.272409,101.330244 C159.818244,101.699523 159.970819,102.438727 159.599586,103.004418 C159.359872,103.330481 158.987667,103.504316 158.595378,103.504316 C158.354368,103.504316 158.11433,103.439813 157.918024,103.286941 Z M205.502899,99.851513 C205.044527,99.3735459 205.088259,98.6124108 205.568011,98.1560523 C206.070115,97.7206572 206.834609,97.7429107 207.271925,98.2431313 C207.730297,98.7207758 207.686566,99.4819109 207.205842,99.917306 C206.965803,100.135004 206.682358,100.243046 206.397616,100.243046 C206.070115,100.243046 205.742937,100.112428 205.502899,99.851513 Z M167.591461,93.7205052 C167.264284,93.1557816 167.482942,92.4159325 168.051129,92.08987 C168.618344,91.7641299 169.360486,91.9592514 169.68896,92.525265 C170.016461,93.1122421 169.819183,93.8511237 169.251967,94.1559003 C169.055661,94.2642653 168.837003,94.3287682 168.640696,94.3287682 C168.225084,94.3287682 167.832471,94.1123608 167.591461,93.7205052 Z M194.736495,92.4159325 C194.103196,92.176949 193.819427,91.4816069 194.059465,90.8723763 C194.300475,90.2415372 194.998885,89.9593367 195.632184,90.1979977 C196.243131,90.4379488 196.526901,91.1332908 196.286863,91.7641299 C196.090556,92.2204885 195.653564,92.5030115 195.173812,92.5030115 C195.020265,92.5030115 194.86769,92.4817255 194.736495,92.4159325 Z M180.498123,89.2852806 C180.454392,88.6331555 180.956496,88.0461784 181.61247,88.0026389 C182.267149,87.9590994 182.856716,88.45932 182.900448,89.1333761 C182.944179,89.7851787 182.442076,90.3508697 181.786101,90.3944093 L181.699934,90.3944093 C181.066635,90.3944093 180.541855,89.9157972 180.498123,89.2852806 Z" id="mila-logo"></path>
            </g>
        </g>
    </g>
</svg>